<?xml version="1.0" encoding="UTF-8" standalone="no"?>
<!-- Created with Inkscape (http://www.inkscape.org/) -->

<svg
   width="150"
   height="150"
   viewBox="0 0 39.6875 39.6875"
   version="1.1"
   id="svg5"
   inkscape:version="1.1 (c4e8f9e, 2021-05-24)"
   sodipodi:docname="dino.svg"
   xmlns:inkscape="http://www.inkscape.org/namespaces/inkscape"
   xmlns:sodipodi="http://sodipodi.sourceforge.net/DTD/sodipodi-0.dtd"
   xmlns="http://www.w3.org/2000/svg"
   xmlns:svg="http://www.w3.org/2000/svg">
  <sodipodi:namedview
     id="namedview7"
     pagecolor="#ffffff"
     bordercolor="#666666"
     borderopacity="1.0"
     inkscape:pageshadow="2"
     inkscape:pageopacity="0.0"
     inkscape:pagecheckerboard="0"
     inkscape:document-units="mm"
     showgrid="false"
     width="150px"
     units="px"
     inkscape:zoom="2.6832492"
     inkscape:cx="19.37949"
     inkscape:cy="120.93547"
     inkscape:window-width="1667"
     inkscape:window-height="1003"
     inkscape:window-x="-1"
     inkscape:window-y="37"
     inkscape:window-maximized="0"
     inkscape:current-layer="layer4" />
  <defs
     id="defs2" />
  <g
     inkscape:label="Layer 1"
     inkscape:groupmode="layer"
     id="layer1"
     style="display:inline"
     sodipodi:insensitive="true">
    <path
       style="fill:#bcc092;fill-opacity:1;stroke:#000000;stroke-width:0.264583px;stroke-linecap:round;stroke-linejoin:miter;stroke-opacity:1"
       d="M 11.290338,9.0717131 C 10.411949,7.6538936 6.329437,9.1027082 4.3386454,10.107072 3.4418465,10.559511 1.522318,11.755454 0.93675297,12.868028 c -0.53522631,1.01693 -0.58496393,3.129591 -0.0986056,4.190737 0.18077693,0.394422 0.45334153,0.760246 0.78884463,1.035358 1.2367352,1.014123 2.5227073,1.333557 4.0921315,1.57769 1.570143,0.244244 4.6154555,-0.398846 4.7823705,2.021414 0.07395,1.072305 -1.0673534,2.464778 -2.0214144,2.859562 -1.2919712,0.534608 -1.7960504,0.03525 -2.6623507,1.479083 -0.1366004,0.227668 -0.3409275,0.477899 -0.2958166,0.739542 0.049715,0.288349 0.2988696,0.527932 0.5423307,0.69024 0.6634205,0.44228 1.5506674,0.0354 2.1693227,-0.14791 1.8699443,-0.554056 0.7063804,-0.262033 2.4158363,-1.035358 0.538168,-0.243456 1.402788,-0.654671 1.528387,-0.295817 0.09481,0.270899 0.277017,0.562455 0.197211,0.838148 -0.11793,0.407392 -0.474597,0.704178 -0.739542,1.035359 -0.333967,0.417457 -1.597901,1.407248 -1.331175,2.169322 0.06537,0.186785 0.207224,0.379542 0.394422,0.443725 1.094092,0.375118 1.68322,0.129299 2.662351,-0.394423 0.06933,-0.03708 1.37931,-1.038529 1.479083,-1.133964 0.168791,-0.161452 0.278563,-0.377166 0.443725,-0.54233 0.33969,-0.33969 0.700999,-0.307829 1.133964,-0.394422 0.574238,-0.114848 0.800537,-0.284186 1.380479,-0.0986 0.342308,0.109537 0.814632,0.22878 0.936753,0.640935 0.292309,0.986546 0.129453,1.247102 -0.197212,2.267928 -0.128384,0.401204 -0.305338,0.785405 -0.443725,1.183267 -0.465402,1.338033 -0.177824,0.761336 -0.690239,1.922809 -0.322165,0.73024 -0.484267,0.848591 -0.591633,1.626992 -0.03559,0.258051 -0.07557,0.891413 0.246514,1.084662 0.336779,0.202068 1.373038,-0.347911 1.626992,-0.493027 0.451223,-0.257842 0.959098,-0.480142 1.281872,-0.887452 0.392805,-0.495681 0.551454,-1.172173 0.823707,-1.743028 2.187156,-4.585972 -0.736155,1.869676 1.331175,-3.204681 0.199253,-0.489077 0.532982,-1.139211 0.951194,-1.510956 0.1216,-0.108087 0.463255,-0.248636 0.493028,-0.197212 0.462498,0.798862 0.699703,1.572093 0.788844,2.514444 0.065,0.68717 0,1.380477 0,2.070716 0,0.493028 0.02011,0.986467 0,1.479085 -0.0128,0.313713 -0.06262,0.624845 -0.0986,0.936752 -0.0308,0.266917 -0.158488,0.382201 0.0493,0.394422 0.246634,0.0145 0.492638,0.05812 0.739542,0.0493 0.216021,-0.0077 0.444152,-0.0092 0.640936,-0.0986 0.634065,-0.28821 1.308719,-0.765167 1.528386,-1.479084 0.304618,-0.990007 0.246515,-1.952297 0.246515,-2.958166 0,-0.712597 -0.193574,-2.136211 0.394422,-2.760956 0.146857,-0.156035 0.369536,-0.218406 0.54233,-0.34512 0.07497,-0.05498 0.107823,-0.171672 0.19721,-0.197212 0.05698,-0.01627 0.106011,0.05671 0.14791,0.09861 0.402722,0.402723 0.763786,0.847331 1.183267,1.23257 0.387527,0.355891 0.814615,0.666443 1.232569,0.986054 1.235186,0.944555 2.227048,1.644086 3.697708,2.169324 0.274252,0.09795 0.563899,0.148566 0.838148,0.246512 0.187007,0.06679 0.348485,0.203438 0.542332,0.246515 0.435578,0.0968 1.041498,-0.396449 1.281872,-0.690239 0.173204,-0.211694 0.382222,-0.423723 0.443724,-0.690237 0.04571,-0.198075 -0.03515,-0.422495 -0.147907,-0.591635 C 37.662098,30.978959 36.682748,30.385089 36.533369,30.271924 36.226434,30.039397 35.933292,29.788689 35.645917,29.532382 34.387704,28.410191 34.857258,28.716647 33.476596,27.363058 32.522699,26.427866 31.412134,25.59825 30.56773,24.5528 30.232645,24.13793 29.984469,23.659654 29.68028,23.221624 29.230229,22.57355 28.745348,21.949996 28.299803,21.298816 27.334026,19.887297 26.51516,18.373035 25.045819,17.403895 23.7815,16.569983 22.359163,16.501081 20.904384,16.319234 19.146918,16.099551 19.662978,16.103934 17.946217,16.07272 16.98845,16.05531 15.820073,16.24424 14.938747,15.727601 13.986758,15.169538 13.752,13.920895 13.311755,13.015947 c -0.109742,-0.22558 -0.269962,-0.42313 -0.394423,-0.640936 -0.175066,-0.306367 -0.330235,-0.623691 -0.493027,-0.936753 -0.118677,-0.228225 -0.21137,-0.470508 -0.34512,-0.690239 -0.09743,-0.160059 -0.0843,-0.409834 -0.188238,-0.565743 -0.153379,-0.2300682 -0.368951,-0.6771459 -0.507476,-0.9541956 -0.04648,-0.092966 -0.131743,-0.059862 -0.09313,-0.1563673 z"
       id="path912"
       sodipodi:nodetypes="csssssssssscsssssssssssssssssssssscssscsccsssscssssssssssssssssssssssssscc" />
  </g>
  <g
     inkscape:groupmode="layer"
     id="layer2"
     inkscape:label="details"
     sodipodi:insensitive="true">
    <circle
       style="fill:#000000;fill-opacity:1;stroke-width:0.71634;stroke-linecap:round"
       id="path5540"
       cx="8.2089148"
       cy="11.906623"
       r="0.56698209" />
  </g>
  <g
     inkscape:groupmode="layer"
     id="layer3"
     inkscape:label="shading"
     sodipodi:insensitive="true">
    <path
       style="fill:#9da082;fill-opacity:1;stroke:none;stroke-width:0.264583px;stroke-linecap:butt;stroke-linejoin:miter;stroke-opacity:1"
       d="m 13.108238,12.759615 c 0,0 -0.331192,2.632106 1.080733,3.869719 1.411924,1.237613 3.991737,-0.610091 3.712838,-0.505504 -0.278898,0.104588 -3.625682,0.801834 -4.793571,-3.364215 z"
       id="path6325" />
    <path
       style="fill:#9da082;fill-opacity:1;stroke:none;stroke-width:0.265;stroke-linecap:butt;stroke-linejoin:miter;stroke-miterlimit:4;stroke-dasharray:none;stroke-opacity:1"
       d="M 37.975473,31.381225 C 27.991659,26.574204 26.167455,18.365289 26.167455,18.365289 c 0.160434,0.180764 0.377422,0.303468 0.542332,0.468377 0.03388,0.03388 0.04402,0.08584 0.07395,0.123257 0.137664,0.17208 0.215924,0.38611 0.34512,0.566982 0.02026,0.02837 0.05217,0.04673 0.07395,0.07395 0.160713,0.200892 0.248646,0.468178 0.369771,0.690239 0.0943,0.172888 0.2113,0.353928 0.320468,0.51768 0.167764,0.251646 0.03001,0.01902 0.17256,0.197211 0.0526,0.06575 0.07876,0.155115 0.123257,0.221862 0.01934,0.02901 0.0493,0.0493 0.07395,0.07395 0.02465,0.03287 0.05116,0.06442 0.07395,0.09861 0.112812,0.169219 0.207562,0.34832 0.320468,0.517679 0.02578,0.03868 0.07159,0.06078 0.09861,0.09861 0.144097,0.201736 0.263415,0.421711 0.419073,0.616285 0.02178,0.02722 0.05836,0.04277 0.07395,0.07395 0.08233,0.164665 0.199402,0.307685 0.295817,0.468376 0.01891,0.03151 0.02635,0.06991 0.0493,0.09861 0.02904,0.0363 0.07469,0.05875 0.09861,0.09861 0.182349,0.303915 0.373576,0.614878 0.591633,0.88745 0.02296,0.02869 0.02578,0.07037 0.0493,0.0986 0.139784,0.167741 0.298185,0.336346 0.419074,0.51768 0.07149,0.107233 0.203043,0.3263 0.295815,0.419073 0.0058,0.0058 0.01643,0 0.02465,0 0.01643,0.01644 0.03536,0.03071 0.0493,0.0493 0.07629,0.101719 0.166064,0.195252 0.246515,0.295817 0.05291,0.06613 0.05207,0.04166 0.123256,0.0986 0.05161,0.04128 0.07002,0.112419 0.123257,0.147909 0.264544,0.176362 0.506378,0.419757 0.764195,0.591633 0.06068,0.04046 0.113622,0.103707 0.172559,0.147909 0.165429,0.124071 0.349432,0.250827 0.493028,0.394422 0.02095,0.02095 0.02835,0.053 0.0493,0.07395 0.06853,0.06853 0.185189,0.135887 0.246514,0.197211 0.07248,0.07248 0.150179,0.174831 0.221863,0.246514 0.179291,0.179293 0.407957,0.346571 0.591633,0.566982 0.113957,0.136749 0.263829,0.253167 0.369771,0.394423 0.169089,0.225452 0.374333,0.434821 0.616285,0.616285 0.105104,0.07883 0.192541,0.188545 0.295816,0.271165 0.09921,0.07936 0.171959,0.1918 0.271166,0.271165 0.114703,0.09176 0.236485,0.162531 0.345119,0.271166 0.02095,0.02095 0.02835,0.053 0.0493,0.07395 0.05159,0.05159 0.151354,0.102051 0.197211,0.147908 0.06705,0.06705 0.11742,0.159802 0.197211,0.221863 0.301296,0.23434 0.598214,0.496318 0.936753,0.665587 0.132021,0.06601 0.238244,0.180751 0.369771,0.246514 0.01644,0.0082 0.0082,0.04109 0.02465,0.0493 0.04648,0.02324 0.09861,0.03287 0.147908,0.0493 z"
       id="path7437" />
    <path
       style="fill:#9da082;fill-opacity:1;stroke:none;stroke-width:0.264583px;stroke-linecap:butt;stroke-linejoin:miter;stroke-opacity:1"
       d="m 12.424302,26.746763 c 0.566983,-3.35259 -1.972111,-0.443725 -1.972111,-0.443725 0.164001,-0.108955 0.368019,-0.115866 0.542331,-0.197211 0.05369,-0.02506 0.09589,-0.07023 0.147908,-0.09861 0.200042,-0.109114 0.723122,-0.250619 0.936753,-0.197211 0.340081,0.08502 0.34512,0.500682 0.34512,0.764193 0,0.106174 0.03553,0.03042 -10e-7,0.17256 z"
       id="path9150" />
    <path
       style="fill:#9da082;fill-opacity:1;stroke:none;stroke-width:0.264583px;stroke-linecap:butt;stroke-linejoin:miter;stroke-opacity:1"
       d="m 17.477839,27.905377 c -1.700946,-1.898156 -2.785608,1.232572 -2.785608,1.232572 -0.01643,-0.04109 -0.04381,-0.07935 -0.0493,-0.123257 -0.01752,-0.140137 0.245336,-0.413202 0.345119,-0.493028 0.163184,-0.130548 0.329537,-0.2757 0.51768,-0.369771 0.01172,-0.105447 0.126098,-0.03072 0.172559,-0.0493 0.02751,-0.011 0.04585,-0.03993 0.07395,-0.0493 0.181135,-0.06038 0.381513,-0.06769 0.566983,-0.0986 0.130664,-0.02178 0.264671,-0.05233 0.394422,-0.07395 0.05126,-0.0085 0.09634,-0.04286 0.147908,-0.0493 0.01761,-0.0022 0.526523,-0.04046 0.542331,-0.02465 0.02905,0.02905 0.0493,0.06574 0.07395,0.0986 z"
       id="path9284" />
    <path
       style="fill:#9da082;fill-opacity:1;stroke:none;stroke-width:0.264583px;stroke-linecap:butt;stroke-linejoin:miter;stroke-opacity:1"
       d="m 22.087649,30.074701 c 0,0 1.035359,-3.89492 1.676295,-1.281872 -0.144167,-0.01 -0.187716,-0.226915 -0.320468,-0.271166 -0.335848,-0.111949 -0.797783,0.713633 -0.961404,0.936753 -0.12763,0.174041 -0.322993,0.325519 -0.419074,0.517679"
       id="path9951" />
    <path
       style="fill:#9da082;fill-opacity:1;stroke:none;stroke-width:0.264583px;stroke-linecap:butt;stroke-linejoin:miter;stroke-opacity:1"
       d="m 28.62027,28.151891 c -1.306526,-1.45443 -1.183267,1.454433 -1.183267,1.454433 0.05783,-0.348415 0.186004,-0.796527 0.517678,-0.986055 0.123214,-0.07041 0.495218,-0.145578 0.566982,-0.271165 0.241225,-0.422144 -0.09638,0.09526 0.09861,-0.197213 z"
       id="path10200" />
    <path
       style="fill:#9da082;fill-opacity:1;stroke:none;stroke-width:0.264583px;stroke-linecap:butt;stroke-linejoin:miter;stroke-opacity:1"
       d="m 10.402888,21.545318 c 2.958168,-3.747011 -5.3247007,-2.169322 -5.3247007,-2.169322 0.2905433,0.383946 0.779965,0.345996 1.2079183,0.369771 0.2383543,0.01324 0.5229564,0.05146 0.7641932,0.02465 0.067346,-0.0075 0.130132,-0.03972 0.1972112,-0.0493 0.1138836,-0.01627 0.2304185,0.0088 0.3451195,0 0.2015829,-0.01551 0.4114859,-0.04327 0.6162849,-0.02465 0.3064379,0.02786 0.6242403,0.143707 0.9121016,0.246514 0.051911,0.01854 0.095615,0.05652 0.1479083,0.07395 0.015591,0.0052 0.034044,-0.0061 0.049303,0 0.1892331,0.07569 -0.022258,0.01776 0.123257,0.09861 0.492901,0.273834 0.4341909,0.108956 0.7395417,0.566982 0.148186,0.222279 0.244533,0.483124 0.295817,0.739542 0.02833,0.141631 0.02465,-0.0071 0.02465,0.07395"
       id="path10334" />
  </g>
  <g
     inkscape:groupmode="layer"
     id="layer4"
     inkscape:label="outline">
    <path
       style="fill:none;fill-opacity:1;stroke:#000000;stroke-width:0.264583px;stroke-linecap:round;stroke-linejoin:miter;stroke-opacity:1"
       d="M 11.290341,9.0717131 C 10.033435,7.8755423 8.1002984,8.7532879 6.6562078,9.136317 4.5210192,9.9154536 2.2615783,10.94011 0.9367556,12.868028 c -0.79077325,1.90039 -0.68098363,4.683709 1.3926394,5.727354 1.8891298,1.194069 4.1751441,1.072348 6.307127,1.271132 2.10012,0.0744 2.364938,2.779711 0.921912,3.890739 -0.9847499,1.361924 -3.2289712,0.706856 -3.8508957,2.449426 -0.5872493,2.19543 2.7079559,1.282478 3.7941316,0.671612 0.8228771,-0.625935 3.4077031,-1.870764 2.7452861,0.229497 -0.804608,0.910358 -3.2995181,3.182864 -0.808376,3.531608 2.158923,0.221662 3.119966,-2.301956 4.979251,-2.635412 2.071998,-0.97521 3.150223,1.562657 2.015987,3.108457 -0.45054,1.598383 -1.337302,3.063712 -1.643354,4.686042 0.168546,1.872801 2.634136,0.04628 3.314173,-0.740781 0.389997,-0.802386 1.405972,-3.196404 1.397224,-2.968428 -0.38886,0.56948 0.538084,-1.54395 0.701579,-1.97558 0.29984,-1.203133 1.747931,-2.18309 1.897727,-0.314659 0.478417,1.80858 0.240911,3.718912 0.184598,5.563746 -0.122327,1.680607 3.183349,0.111179 3.02743,-1.270218 0.659817,-1.818801 -0.786715,-4.464364 1.085216,-5.694149 0.872724,-0.199862 1.602957,1.644645 2.60389,2.000486 1.4557,1.221708 3.143021,2.137701 4.961523,2.667522 1.619452,0.544237 2.873618,-2.190047 0.811324,-2.632693 C 34.857289,29.061813 33.442829,27.129704 31.607677,25.654826 30.171361,24.338849 29.321862,22.545717 28.12025,21.03311 26.903054,19.030057 25.309491,16.841151 22.78464,16.566573 20.611275,16.217237 18.421165,15.99519 16.218646,16.076902 14.85615,16.123875 13.950928,14.940976 13.61783,13.74294 12.936727,12.304534 12.122821,10.926361 11.499638,9.4617005 11.574693,9.2411871 11.265503,9.248214 11.290341,9.0717131 Z"
       id="path912-1"
       sodipodi:nodetypes="csssssssssscsssssssssssssssssssssscssscsccsssscssssssssssssssssssssssssscc" />
  </g>
</svg>
